/* XPM */
static char *a76c26474ba94f4ba25fe5d34cf704f5flggSnVWrePdszB5[] = {
/* columns rows colors chars-per-pixel */
"100 100 39 1 ",
"  c #9BA89E",
". c #4C5C50",
"X c #213125",
"o c #6C7B70",
"O c #617165",
"+ c #5C6C60",
"@ c #516155",
"# c #99A89E",
"$ c #56665A",
"% c #66756A",
"& c #27372B",
"* c #808F84",
"= c #314335",
"- c #AAB8AE",
"; c #B3C1B7",
": c #A5B4AA",
"> c #2D3D30",
", c #A1AFA5",
"< c #AEBDB3",
"1 c #36473A",
"2 c #86958A",
"3 c #728176",
"4 c #9DACA1",
"5 c #3B4B3F",
"6 c #3F5043",
"7 c #77877C",
"8 c #8B998F",
"9 c #48584C",
"0 c #7C8B80",
"q c #445448",
"w c #909E94",
"e c #93A298",
"r c #97A59B",
"t c #34553B",
"y c #3E6245",
"u c #4C6D53",
"i c #478A50",
"p c #35713D",
"a c #638B6A",
/* pixels */
".@$951156tt56@%7*8e483$966qqqtt==@*22*3o+$@$+%3$=5$33702288*7oO$@6=1=.$@@@$3227o+$+%$1=1555111==1=69",
":--:#we#26ue,-<<;;;;;<<:4,,:,O1yO:<---<<<-----<,9q4;;;;<-<;;;;<-:euy7:-:----:,::::,-,$0eerrew*91$04:",
",,,:<;<<e$@,-:4444,,,,,,:-<;;-%O,: #    4,,4    %O:,:-, r# 4,,4444O*-,44,,4#########w%*,4,,--e$+,:,4",
"#####4##w%6%e##eer###re82228#,2+w######  ##### r77#rr#rrrrrr#### 8O*##########reer#e7$owr#rer7.24###",
"#######r2oy@087oo72ew2********7Ow############  r3o      # ###   r2%o8e202ww882o%o37o@1+o307o3$50r  #",
"r###w203$5>5O%+$$O%o30*****0**7@7r          r882%o w8**8e#     e0@=@%%O+O%%O+95.+O$5&>&>q$$$.>1%*02e",
"37*7%$$5=+o9q@...@$OOo7073o333O6O022****8ww*3%$q>$7o%%%%%70****%6&=>66=15111=56&6@q>%2o6XX&&X=1>1@+o",
"$++$q>>qw:r75156q9.@@$%%%%OOO%@=@++O++++%%O+$.>XtyOO%%$$$+O+$96>==666O088*3o2:,$X&X$--<,*+q99522$=q@",
"1165632e83$66qq95>&>59$+++@$+$6=19......9q665&>t1tq@$$.@@91>&&X&192::-:::-<<-4::O=q#:#4-;;--8+ :-*6=",
"X&=&+3o@99.3:---- 2O5&=6.....6tt&&5666=&&6.9511==y>5q96=&XX&>yt112-4###  rr# # ,*9w:### ,:,r+@7***@&",
"=15=>>&92,-;<, 4:-<<-29X&=551&>=y>XXXX&@8r#4r35u$+6>>6.O0**077o+5@3377*223o08w23@Owr###rrrr*6=.@6>>=",
"+61632w-<,,, rr##  4::3@@qq1>5.+3O9y1=15%070O63-<<:4#:<<<<;;<<--#@@+O%OOO%OO%%+@19O7827oo73$9o78*733",
"<#o6@o2eee80oo370073oo$w<--:  ,::::4w*@5=1.1q8;-,,,:-:,4  44   ,:+&9$$$@@$@@@@6&>>6.$$@@$@6&o:<<<;;;",
":-,+99@$Oo%O$@uu@@96=>6*444,,4 ## 4,:--:#$&=*:, ##    ##    #  e$t=&66551====>X>1>XXXX=1=&X57w  4,:-",
"##2@83159@uuq1ipXXX=O3.0r ####rer  #  ,:,061q%*r#   #eww822***2o>tt61=q.q51.O@@+O$@q63r# 75.0e      ",
"re*@o426X=pp>tip5@0:;;7O*2wew0o%38rr#rw*o.15>&6o02227ooO+OO+@9@q1$*#rr:--:4:-<::---*9*,44:O9%*e8er# ",
"o%%@@77$@$iippp8,:-:,,*.+O%o%O$$O%%377O@5q7ww$&>.++++$@6561&XXX&q37o%o2e8*8r 4 r2*7O5@*r#,e.+OoOO300",
"@@@6=51O-:aipty3282we2o56@$@.99..616.965O,:,,-2q&5661>XX&>6@%2*3+95>X&q+$@+o70*3$91>>1$3*20.6@@$@@$$",
"65>>>60,448oOyp6@+$OO$9t>>&XXX&>1q5X&O8r4####,-:o&XX=16+8,:-<--<;<4w0O95=&X19@@6&X1.@5X>696>>1&X>=&>",
"XX&tq32887o+1=yX&&>>111uu.$o72e4:--8+$07702e# #4-26+84:<;;-, #4--:::-<<: 8%>X>=5$2:<<,7$&XX>>X>>>>&&",
"*w7@=q+++.51@%o0**2wr ,-<<;;;<:,r84;-+5$$$Oo0wrw80O-;<-:,4#### 4 ### 4::<<,O1*4:-:,,,:<,.6$O+56.99@%",
";<<:$X1q1&=*--,::----::,,,,,4 rr8**w:,9&>156q$%O@1%:,4######### #rew8228w8oq9,,, r rr#r*6O-;<#,--:<;",
"4#4-:7611t@o32r######rrr#####rr2*0000o65@91>&X&=&=o   ## # ##rw273o%%O%%o%@=$,r#######e75%e,4:,4,::,",
"####4---r9+%O%2 r   ## #   r82*3ooooO5@#<-:4wou>5y632*07777003%OO%%+$$$+O$613,#  rr   #*932r#r######",
"######,-<$9+O+o8err#      r273%%O$$9>O::4444:<-44439%O++++%OO$@@@$+++$....1=722w*o*82**7.32r###   r ",
"####ew##-7q.@.+%o330*22288*o%OO$@.6>o,208###  :--4<7q@...@$$966qqq666q99.6t16$+O$$+$$$@$.3aa8##     ",
"8w87%o7733669..$O%O+O%%%%%%OO$@..q>+w3+Oo*r###r207w,5&=11=>&X>.9>XXXXXX&1@+1&=q6=>XX&>yy1uiiO70*28**",
"O%+@$+$.95&X&>59@+O+$++++O+$@..91&=+%+@@+%78e83%O%o2+>>&X&=.74<<40.t16+0r<<2$6>&=@%%6&pitpii.OO$$$$+",
"qqq61=>XX>q.u=XX169.@......61>&&>=t19...@++O%O+@..q51qq.+7#<;<::<;:7t%-<<<;;<-,#,;;;,ouippp=5qq61115",
"X&&X&>qO*e,-:r23O@q1&&>=5=&X&t&=55.@.1&>=16qq5>&&X>.8:::<;;-,###4:-2q3e  4,:-----,,,-<:2t=&X&&XX&&XX",
"=1y90e-;;;;<;;;;;;<,8o@1&=>qo*o78#:--42ooo33o@q1t92<<-<-:,4#####r#e7@0w###    ####r##*73ua8wr#w7%@65",
"1$2:;<::,4444,,,:,44<;;:2uo,;<<-:,4#4:<;;;;;;;<313--4#############e7@0e#  # ##    #  0O+ya<<<;;;;<w.",
".8--,########rrre8**2r::w.0:4 #########44,,,::eo1+2########rrrrre27oO72w8*2wr  #  # wo$q+w44 4,:<:2@",
"O0*r  #rwwee8222********0@%w ####r###ree##### 831$*202e#r8077777o%O%u07o%%%%3*8e8*773$.1*wr      2*O",
"@%%0e80o%ooo700***0077073$%28wre*33773oo02eewrw75%7%O%3*3%OO+$+O%OOO9%OOOO++OOOoO$++@9653%7wwwr# w7%",
"1.$O%%%%O+OO%%o373o%O%o%O.%3%%oo%%%O+O%OO%oo%3*o1o%$@$++O%%O+@.@$@@9=5.$$@@++@.$+@.q>X&>6.$%%%o7*3+1",
"t&19@$+OO+$@@@$$++$@$++@911q...@$$$@$$@@@$$+$$+9=$@...@$+$$@.qq996>>t&15569961>>>>>=1O2+=q.+$$++.5==",
".5&&1q9..961==1=5qq99q1>=q5>X&&=59q5=&X&>>>16=X&=&&=1===5q6=>XXXXX&====XX&>=&5q==>5*w4,,+&59.@q>&>6@",
":42O>XXXXXX=12 0+=XX&1@7r-:47u>t&X&X&1@O%O$.99$0*O615q=&>X&.*23oo33o%$9.@6O2we36q659..+o36&X>&1ow4:-",
";;;<r3+u$%7a@r-<;01@*:;;;<;;;-8*70*.=3-;;;;;<<<;;;-,:-,7q.w<;;;;<<<<<<---o1%*$=2:42@=>X&>=1=1O,;;;;;",
"<--:<;;<<;;<*.* 470,<<:,4 -;;;;;;-w3q3e-:::::,,,,,,:---4$+8:<<:4####4:<<-w951=*;<<;<: w79167,;<--<<<",
"  # ,:::, we,5$87$w##   ##4:--:,, r7@0*r############# #8+%*e#######rr#44r06>+ <,  :--:-<-oq,-4 #   4",
"  #####rw***:$6+q+3*8wr ####  ##r8*%$08#rr######er##rer8%308e###e27330220o9+4: ###  #r#4r7$8e#######",
"ewwwwwe8**** o5q>$%OO%3*erw88ww23O+.578*33028w87o7073o30o%%%o7*7o%OO+$O%++q+*8r  #rr   #r*+0w#rewwee",
"********000*20===5+@.@$Ooo%%%%O+$5=1=$%OO+$+%%%++$$$+OO%+.+O+++$$+O@.$+@.q=+3%302*o3*28w27+7882*****",
"700**073o%o70o=>u=5.9qq9.q9.@@95>6or36@@$$$@@.6556q9...$q=q@@........@.q=X>5=1q@$+$$+OO+++6ooo377777",
"O%oo3o%O++OO%.====&&&&&&&&&&X&&&o:--w5>&&>>=>XXXX&XX&>>&11&=55=>&>1q96>&&=65=>XX&&&&>>=>&&=6@$+O%%O+",
"@$$$$$$@@@@q1=t=+3002errree8o91+# #e36>16q9$+++95t6%2888ww828827%$5X&X>$$5*4,#23O$+6&=15q..1>5q@$++@",
">>>>>=16qq=XX=t=O8e#,:,,4ewww36iia3Oi6+4-<<;;;<:860;;;<<<<<;;;;;;<053*2-7$r;;;;;;;:%@e:----:71&&>151",
"&>t>1>=&XX&19O036>19O30*7%+.1&qaipipi%-<<;<-,,,,8$w-:,44  444,,,,#0@w<<#+3w,-<:4,,waa,---,:-;:w*7O5&",
"16%0w4:w732r:<;;-wO5>=561&&&>11yiippi,-#4,4#####2O78## r ###### rw*+0#4*+*e## # # eo@*e#### :<<<;;rq",
"tO4<::-<;;<-:,,,,-;-#2o$55owr ,wuppta4##      # 8+32r# #       e7oo$$8w$%8e80772we0%@*r    #  4 ,,*9",
"1o2r#r# 44 #r#####,-<;;-oo-<-::,8ippi* #e82228er2$32r  #  rew823+9=>qO+q023%O+$+OOO.+72 # #      #*9",
"532r#####r    r   r 444w7$2 ## r*+u6yO07o%%%%%o30@o*888re27o%%O$q>q91q6@3+$@@...qq6>@%O2#  r88888*35",
"970w #    r r    r  r #w0+7r #ew8*o6.O%O%%%O+$+O%.oo%O%ooO$@$$95>$4:3>>@1&&&&>&XXX&q==6$7880%O+O+$@=",
"6O%o*e#       r82er ###20%o280o%33%56$O+$+$@$+O$91@$+$@$$.96=&X&%we :3tt>$%$.66+72e,2@&&6@$.q1>>15&=",
">q$+Oo7*228wew0%Oo72r 8ooO$%O$.@@q=&=9.@...@$@.9=1X&q.q6=&XX=y=5O%%*w8O.e;;;<--;;;;;;<w$>X>.$.%244$t",
"=1.@$$$@$+%ooo%O$@+%3*oO+55=5q91&&$7+>X&&&>>>&XX1%3O.6>X&933242$511@%%$%e:,:-<<<<<-:,:<-357<;<--:<w6",
"ytq9qqq9..@$+++$q559$O$6>%,o6&&=10:::eO5t===O37*#<<<<:4ww--,re,::e%>9.6o8#####44#######e797#,4## e09",
"1=&XX=X&>>>&&&&&X>q5>5>&908re%1=9%%3722$1ty=o8wr#444,::--:#20**282o1XX=3*e############r87938r870e239",
"==>>=t1t>>1q@O$56*,4O>>=599q6=q@q>&&1966$73+1>5@%3*8wwer###e*0*7%.q20@6%o0e####e28ew27oo%5@%o+$@+$$5",
"q..@@+o*2r4,,4<4O6$7e7yt>>=59or--42o1X=w<;;;,35X=9$++O%308w0o%o$1$,;;-3=q$o2w8*o+Oo%%+$$515==>155115",
":--::<;<:,4 w*8:-3&>.@q2,,:-<;;;;;;<o1@w<<--;;-0qXX&&&=q@O%O$$q13<;<;;<3>X5@$@@$$@$$@.9=6*o1oe,--:::",
"-:,   4 ###e2***w*y>X>7;;;--<;;<:wwr*6%2#### ,-;-2%%+95>>q..95@r;<,,-;;;r$=&&XX&11>&&X&=%3qO24;;<---",
"###  ###rw8**0003.t1$#;<:4 #4::,#2022932###### ,<;;;;<-#6&&&50<;<,## ,,:--,8o6ow8*%+uor89160**,-,###",
"###  # 8***03o%%@=@13r4 ### #  # r27%@78#r   ##r :------71=@4;;-,##### r#4:<-30<;<;;<<-<w1%**078###r",
"##   #8*073%OOO9>74.O*w#### # # # w%+.%3w #r   ##w222220%568:,4 #### ####  e2%ow4# ,, # 8.O*7o%%0wer",
"3702823o%%O+$@5>0-,o.*7*r    #   r*O.9+O3wr#    #2******3uu0w #r##w*2e### #8*O%8###r####89+7%%OO+%o3",
"O%%OOOOOO+$@.5&o-442u0o%3*288ww203%$q19$+%30288*733700003O9Oo*0300%+O3*ee27%3$.o7*2e w07ouyqq.+O$@$O",
"@$$@@@$@.965=>60*ww8u%$OO+O%%%%%OOO.1>>9$++++++O+$$+O%%O+O15@$$@@++$@+%o%+O$9==6.+O30O$q=%2%5X>9@@..",
"66999961>XX&56=6$%O@=59@+$.+OOO+@@.>tt&&=>&>=569@.99q65=>>=&>&&>==169.$@@$.1X.e2$59@.1>&o,::4*+5>==5",
"&>555==1q+3e-r+>=q5=q5&5...q51=>>=1qo7O9=>=t>&=XX&XXX1q$o*wo9995=>XXX>565=&6O,:,e@X&1@q5+%0**w80%9=X",
"y2-:,4::-<<-,-<wo+oe::3=&5=X=6.$o24<;;-:,eerrrw%qty$2:<;;;;;<<<:r*o91>&X&&9w23O+$@6@82.=&q$@9@@9611t",
"6*-<-::,,44#  :;;;;<-:<*=&&+4<<;<-::,4e8w#,-;;;;,uu#;<<-::<;;;;<<<:o92w7ut=.6&>165t6+q1*31&XX&=1q+O6",
"@*e rr#rrr#  ##,-,4  #,<Ot62:<-,######r*0***w4--4$+*r4#####:-:, # w362<<,$=XX.r:-:35>=8;<43.or,:-<<o",
"%*8##### # r#  ##r####r4*ti0*e######r #8******2r#$%*e#############e*.Oe4rOqo2:;<--;:%.e:#,<:::,4 4eO",
"o73w #  r    r        2%O5u0*w##     r w***0****w$o2w*0*e######   r*+$2 eO$r--,4# ::0.*e##   #  # *@",
"%oO32erreeeeeeeeeewww*%O@1$772#     # # 8*****0%%937o%OO3e#### # r*%6@2*a$+*e ##  r2%+08####  r #r7q",
"@@$++o33ooooooooo%%%%%O$6=+%%%3*2888weerr20073%+@=$+$++$$o8eeerr83O6=.3aiy+307002w20O$%o77702wr# w+5",
">q...@++$@$$$+++$@.@$@..65$+OO$@+O%%%oooooo%%O@.5t5......$%oooooO$6>=6+aipuuui+O%%%%9>9@@$OO%%o77o@1",
"=>>>=>>=111155555666511>=1=9......@$$@@..$$$@@.6=t>15555556655551>&=t=.yipppiiq.q5q5>&=@9999..9.@@6>",
"oo%70o+1&1&X&>=1&X&>5@%@66&XX&&X>q=&X&>&&&&>>&&&>.+>XX&XXX&>&&X>>&>=1>==>ptpiO*8*7ooo7e4*$.@$.&XXX=u",
";;;;<;:oyt.78#:,8*w4-<;<,2O951>=*-r0$>=>>&=y=>>t60r2$==1+88.1t=1q+o@51&&>ttpt2;;;;;;;;;;;<<<;<8q1oe-",
"--:4  w76y3#:,,--<-:4444,<<-,e090,-;45=t=984w2oy=qq6=5+8<--40@=10<;-rww8aippia:,,,,,444444,,::#+.:<:",
"      e*$532###r###r######4:--eO6or401$02,;;;;;25XX=o#-<:##,:7153e-<--<<*uutuOr##  ###### ####8+.2##",
"  #ewr2o.q02########### ######87tq00q17,;;<-::-;,O52-,#####w035678######4,8.O2rwer#  #e8errwww8%.*er",
"**7%Oo%O66%o7w########e8w# ##r*a65$q>.0244   #4<;:+2##rw**7Oq1=q30ere8w##w0qo*3%%37*2*o%o3o%%o3%$%o3",
"+$@@$@@qytq$+%30*28we83O%32e#*%iptyty+32r####  4e2$*827O$@6&X>t>9Ooo%%ow#279@++O+$$+O++$@@$+++%$q$@@",
"=>1>&>1>tt5.@$$@@$O%o%O+@@+o7%$iptpiy$Oo3702e# e*36+$.6>XXX1@%Oq1555q.$%7o3q199.@@..q====156q9.5&=6q",
"%7+5t>X>=t151==16qqqqqq5>&=9@6&&tppi55$OOO+Oo0270%t&XX&.o02#-<-:42o@5>>=6.$6>XXXXX=51=&=&>5q6>>55=1.",
";<;,+==t=1>XX>&XXX&5$6X&>=>XXX>1i203$&59@@@+OOOOo@y$%3e<;;<:4#,<;;;<-,w7%$qy1>=y.oe::,7O6+:<:wr,,,-<",
"4 4-,oqy516373o30*e:-:*$q.O3%61Oa7+=1q=>&&>==1q@..e<;;;<-:4###::4##4,:<;;;-3.*w4:---:-<<0%r,,-:,:--:",
"##  4-,,w5@:;;<<--:4#,<-,,<<<e@o+5Xq#:,4e0$6qq=&&7;<:,4########r#######4,:#3o<-:4#####4r732r######  ",
"    ##,-<@O8,4 #######4--:4  -0&&X$,:,,4,<<-<<4+5*,4###########rw82*7770**o.0,r#######r8O32r#    # #",
" #  ee# -732r#######     # ## r@=+,w8r### ,:,e4,$7###rrrrrrre8*3o%OOOOO%%O$684##  ### #8%38##       ",
"wew0oo0077732# #            r7%.$e0O%7w   r2337#e.3073oo3333o%+OOO%+$@@$+$qqr###r8w#rrre%%2*00*28w22",
"%oO$$+$@@.%O%08ww888888882227%$6o3+@$Oo2ew7%+O%o2@qOO+$$+O%O$@..@@$++$....5.730*oO3733oo+$o++OO$$++O",
"9.9q611&X&q@$$Oo%OO%%%%%+++O+$9=q$@..@+O%%+@..@++5>6....@$$@.....9q66699.9==5@+$@$$@@....566q99q6566",
"XX&X&XX&t1&566q9.999.....9..9q5=>=56qqq9999..9q511t=&=1566qqq65=>>&XX>&&&X==&19999999qqq==&X&&XXXXXX",
"==>=y1==t1>XXXXXXXXXXXXXXXXXXX&=>XXXXXXXXXXX&XXX&==t>XXXXXXXXXXX&t1==y1>>>t==XXXXXXXXXXX&1==11======"
};
